<?xml version="1.0" encoding="UTF-8" standalone="no"?>
<svg width="46px" height="48px" viewBox="0 0 46 48" version="1.1" xmlns="http://www.w3.org/2000/svg" xmlns:xlink="http://www.w3.org/1999/xlink">
    <!-- Generator: sketchtool 41 (35326) - http://www.bohemiancoding.com/sketch -->
    <title>C2E47DB5-DCCC-4214-8B15-C4AE761317B7</title>
    <desc>Created with sketchtool.</desc>
    <defs>
        <filter x="-50%" y="-50%" width="200%" height="200%" filterUnits="objectBoundingBox" id="filter-1">
            <feOffset dx="0" dy="0" in="SourceAlpha" result="shadowOffsetOuter1"></feOffset>
            <feGaussianBlur stdDeviation="1" in="shadowOffsetOuter1" result="shadowBlurOuter1"></feGaussianBlur>
            <feColorMatrix values="0 0 0 0 0.702221514   0 0 0 0 0.702221514   0 0 0 0 0.702221514  0 0 0 1 0" type="matrix" in="shadowBlurOuter1" result="shadowMatrixOuter1"></feColorMatrix>
            <feMerge>
                <feMergeNode in="shadowMatrixOuter1"></feMergeNode>
                <feMergeNode in="SourceGraphic"></feMergeNode>
            </feMerge>
        </filter>
        <path d="M17.4117582,13.2259976 L13.5266358,7.69807923 C13.4647058,7.60996267 13.4863654,7.48839752 13.5756468,7.42611422 L24.2207807,-7.63975549e-14 L17.4117582,13.2259976 L17.4117582,13.2259976 Z" id="path-2"></path>
        <filter x="-50%" y="-50%" width="200%" height="200%" filterUnits="objectBoundingBox" id="filter-3">
            <feOffset dx="0" dy="0" in="SourceAlpha" result="shadowOffsetOuter1"></feOffset>
            <feGaussianBlur stdDeviation="1.5" in="shadowOffsetOuter1" result="shadowBlurOuter1"></feGaussianBlur>
            <feColorMatrix values="0 0 0 0 0.488015519   0 0 0 0 0.488015519   0 0 0 0 0.488015519  0 0 0 1 0" type="matrix" in="shadowBlurOuter1"></feColorMatrix>
        </filter>
    </defs>
    <g id="About" stroke="none" stroke-width="1" fill="none" fill-rule="evenodd">
        <g id="openbazaar-2.0-about-contributors" transform="translate(-360.000000, -119.000000)">
            <g id="Group-9" transform="translate(342.000000, 105.000000)">
                <g id="Group-6">
                    <g id="Group-3" transform="translate(20.000000, 16.000000)">
                        <g id="Base-+-Rounded" filter="url(#filter-1)">
                            <g id="Rounded">
                                <path d="M0,1.99749218 C0,0.894307712 0.896660339,0 1.99749218,0 L40.0025078,0 C41.1056923,0 42,0.896660339 42,1.99749218 L42,40.0025078 C42,41.1056923 41.1137506,42 40.0069564,42 L28.4927344,42 L27.69375,42 L27.69375,39.06 L15.456,39.06 L14.1380859,42 L1.99565632,42 C0.893485767,42 0,41.1033397 0,40.0025078 L0,1.99749218 Z" id="Background" fill="#FFFFFF"></path>
                                <g id="Logo" transform="translate(5.600000, 1.400000)">
                                    <g id="Base" transform="translate(1.758796, 27.311678)">
                                        <polygon id="Path-38" fill="#0474BE" points="0 0 3.05079264 13.2737415 6.83155412 13.2737416 13.5799013 0 20.3238592 13.273742 24.1345828 13.273742 27.1598027 0"></polygon>
                                        <path d="M6.83941802,13.2259976 L2.95429555,7.69807923 C2.89236561,7.60996267 2.91402516,7.48839752 3.00330659,7.42611422 C3.00330659,7.42611422 6.63638608,4.89165448 8.45292583,3.62442462 C8.68630873,3.46161519 13.6484405,-7.63975549e-14 13.6484405,-7.63975549e-14 L6.83941802,13.2259976 L6.83941802,13.2259976 Z" id="Left-Flap" fill="#FFFFFF"></path>
                                        <g id="Left-Flap" transform="translate(18.856073, 6.612999) scale(-1, 1) translate(-18.856073, -6.612999) ">
                                            <use fill="black" fill-opacity="1" filter="url(#filter-3)" xlink:href="#path-2"></use>
                                            <use fill="#FFFFFF" fill-rule="evenodd" xlink:href="#path-2"></use>
                                        </g>
                                        <polygon id="Shadow" fill="#16242D" points="7.82191703 11.3471655 13.5816856 0 19.3214019 11.3471655"></polygon>
                                    </g>
                                    <g id="Roof">
                                        <path d="M30.5639575,24.1123101 L30.5639575,24.0928018 C30.4662466,23.819685 28.9810415,19.6936708 28.9712704,19.6546541 C28.9321861,19.537604 26.2939928,12.1927135 26.2451374,12.0756634 C25.7174987,12.1049259 24.9846673,12.1049259 24.1248117,11.99763 C23.2454139,11.8903342 21.4963895,11.6659882 19.6691964,10.5930294 C17.6465816,9.41277479 16.3177139,7.78382827 15.8096174,6.87669039 C17.1384851,9.68589157 19.2099554,13.2461639 22.3953294,16.8552071 C25.3266553,20.1813793 28.1602703,22.4931178 30.5639575,24.1123101 L30.5639575,24.1123101 Z" id="Shape" fill="#287EE1"></path>
                                        <path d="M8.38359191,16.6308612 C11.6178214,12.9340304 13.7381471,9.31523308 15.1354124,6.45726105 C15.0963281,6.44750687 14.177846,8.54465359 11.9695805,10.0272875 C10.2987248,11.139263 8.65718233,11.422134 7.62144719,11.597709 C6.4880012,11.7927925 5.51089259,11.8025466 4.82691656,11.7732841 C3.25377169,15.8602817 1.67085573,19.8985084 0.0977108615,23.9952601 L0.107481948,24.0342768 L0.117253034,24.0342768 C2.56002457,22.3077885 5.45226607,19.9960501 8.38359191,16.6308612 L8.38359191,16.6308612 Z" id="Shape" fill="#025A92"></path>
                                        <path d="M30.5639575,24.0928018 L30.5639575,24.0928018 C28.1602703,22.4638553 25.3266553,20.1521168 22.3953294,16.8356987 C19.2001843,13.2266556 17.1384851,9.65662906 15.8096174,6.85718205 C15.7021354,6.62308195 15.5946535,6.38898185 15.4871715,6.16463592 C15.4187739,6.14512758 15.3601474,6.11586507 15.3015209,6.09635673 C15.2526655,6.20365261 15.194039,6.32070266 15.1354124,6.42799853 C13.7479182,9.28597057 11.6178214,12.9047679 8.38359191,16.6015986 C5.44249498,19.9667876 2.56002457,22.2492635 0.107481948,23.9659976" id="Shape" fill="#1062A9"></path>
                                        <path d="M15.3015209,27.301924 L28.9810415,27.3116781 L29.9288369,27.3116781 L30.5834996,24.0342768 C20.3434014,24.0342768 10.3280381,23.9562434 0.0879397753,23.9562434 L0.918482098,27.3214323 L1.80765094,27.3214323 L15.3015209,27.301924 L15.3015209,27.301924 Z" id="Shape" fill="#025A92"></path>
                                        <path d="M17.8420033,6.57561316 C18.9949915,6.53659647 19.6007988,6.15618382 20.6365339,5.91232955 C21.545245,5.68798362 22.8936548,5.54167106 24.6817636,5.95134623 C24.2616069,5.46363769 23.6851128,4.86863327 22.9034259,4.30289137 C22.3073897,3.87370786 21.7406667,3.56157439 21.2521124,3.32747429 C21.4475341,2.9568158 21.7308956,2.51787812 22.121739,2.08869461 C23.1965585,0.918194115 24.496113,0.459748089 25.180089,0.274418845 C24.4570286,0.0793354292 23.4994622,-0.076731303 22.4148716,0.0403187462 C20.529052,0.235402161 19.7669073,1.08401502 17.9690274,1.1913109 C17.2557381,1.23032758 16.337256,1.16204838 15.2428944,0.762127383 L15.2428944,6.04888794 C15.2917498,6.06839628 15.3503763,6.08790462 15.3992318,6.11716713 C15.4578583,6.14642964 15.5262559,6.16593799 15.5848824,6.18544633 C16.1613765,6.40979226 16.9332923,6.60487567 17.8420033,6.57561316 L17.8420033,6.57561316 Z" id="Flag" fill="#DCDCDC"></path>
                                    </g>
                                </g>
                            </g>
                        </g>
                    </g>
                </g>
            </g>
        </g>
    </g>
</svg>